<?xml version="1.0" standalone="no"?>
<!DOCTYPE svg PUBLIC "-//W3C//DTD SVG 20010904//EN"
 "http://www.w3.org/TR/2001/REC-SVG-20010904/DTD/svg10.dtd">
<svg version="1.0" xmlns="http://www.w3.org/2000/svg"
 width="200.000000pt" height="200.000000pt" viewBox="0 0 200.000000 200.000000"
 preserveAspectRatio="xMidYMid meet">

<g transform="translate(0.000000,200.000000) scale(0.100000,-0.100000)"
fill="#000000" stroke="none">
<path d="M825 1884 c-38 -9 -110 -31 -158 -50 l-88 -35 -61 30 c-171 86 -360
-17 -375 -203 -6 -69 7 -123 40 -170 18 -26 19 -32 7 -60 -7 -17 -29 -76 -48
-131 -30 -87 -36 -116 -40 -221 -14 -363 174 -677 503 -839 129 -63 241 -89
390 -88 133 1 219 19 344 72 l71 30 36 -24 c147 -100 354 -11 395 169 14 64 0
137 -37 191 l-23 35 30 71 c53 125 71 211 72 344 2 346 -183 644 -498 801
-176 88 -378 116 -560 78z m355 -110 c94 -23 234 -94 313 -159 261 -217 355
-579 231 -890 l-25 -63 -84 6 c-108 6 -156 -11 -218 -77 -64 -68 -86 -154 -63
-252 8 -36 7 -36 -36 -54 -154 -63 -323 -81 -462 -51 -305 68 -536 292 -611
591 -37 144 -18 344 44 489 17 39 25 47 39 41 9 -4 43 -10 75 -13 137 -11 260
93 274 232 3 28 0 69 -6 91 -14 50 -9 54 102 89 148 48 282 54 427 20z"/>
<path d="M883 1466 c-252 -61 -412 -323 -348 -569 43 -166 172 -300 328 -342
86 -23 220 -17 299 14 118 46 223 151 269 268 31 80 37 213 14 300 -64 236
-322 387 -562 329z m190 -210 c58 -21 101 -55 137 -108 28 -40 34 -59 38 -121
3 -59 0 -83 -15 -118 -29 -64 -67 -105 -128 -134 -204 -100 -425 89 -361 309
40 136 197 219 329 172z"/>
<path d="M910 1137 c-107 -71 -93 -228 24 -272 74 -28 140 -9 188 56 47 62 27
169 -40 214 -49 34 -125 34 -172 2z"/>
</g>
</svg>
